<svg fill='#f1ebff' id="Capa_1" enable-background="new 0 0 512 512" height="512" viewBox="0 0 512 512" width="512" xmlns="http://www.w3.org/2000/svg"><g><path d="m31 497c0 8.291 6.709 15 15 15h240c8.291 0 15-6.709 15-15s-6.709-15-15-15h-48.68l-17.545-63.421c-35.42-4.131-68.439-18.556-95.601-41.818l-29.494 105.239h-48.68c-8.291 0-15 6.709-15 15z"/><path d="m316 30c74.443 0 135 60.557 135 135 0 8.291 6.709 15 15 15s15-6.709 15-15c0-90.981-74.019-165-165-165-8.291 0-15 6.709-15 15s6.709 15 15 15z"/><path d="m316 90c41.353 0 75 33.647 75 75 0 8.291 6.709 15 15 15s15-6.709 15-15c0-57.891-47.109-105-105-105-8.291 0-15 6.709-15 15s6.709 15 15 15z"/><path d="m156.142 133.931c-5.859-5.859-15.352-5.859-21.211 0-58.491 58.491-58.491 153.647 0 212.139 58.478 58.478 153.629 58.51 212.139 0 5.859-5.859 5.859-15.352 0-21.211l-84.859-84.859 34.51-34.51c5.867 2.807 12.352 4.51 19.279 4.51 24.814 0 45-20.186 45-45s-20.186-45-45-45-45 20.186-45 45c0 6.927 1.703 13.412 4.51 19.279l-34.51 34.51z"/></g></svg>